# xmcd CD database file
#
# Track frame offsets:
#	150
#	12652
#	25847
#	39066
#	50880
#	61936
#	75443
#	88099
#	101339
#	114376
#	127121
#	139173
#	150968
#	162846
#	175891
#	187140
#	199805
#	212403
#	225472
#	239270
#	254950
#	263889
#	276745
#	288904
#	302257
#
# Disc length: 4173 seconds
#
# Revision: 1
# Processed by: cddbd v1.5.1PL0 Copyright (c) Steve Scherf et al.
# Submitted via: jetAudio 5
#
DISCID=5e104b19
DTITLE=Various Artist - The Great Vintage Country [CD 3 of 3)
DYEAR=1900
DGENRE=
TTITLE0=The Big Rock Candy Mountain
TTITLE1=I'd Like to Call You My Sweetheart
TTITLE2=Please Don't Pass Me By
TTITLE3=The Shearers' Jamboree
TTITLE4=When Grandma Does the Square Dance
TTITLE5=Old Buffalo Trail
TTITLE6=Between Two Trees
TTITLE7=Dolly Dimple Dance
TTITLE8=Snowy River Riders
TTITLE9=Beyond the Setting Sun
TTITLE10=Valley of Love
TTITLE11=Gymkhana Yodel
TTITLE12=Rodeo Rhythm
TTITLE13=Carefree Cowboy
TTITLE14=Little Darling (I'm Sick and Tired of You)
TTITLE15=Rye Whisky
TTITLE16=Just One More Waltz
TTITLE17=My Home Way Out Back
TTITLE18=Silver Threads
TTITLE19=What Good Is the Moon Without You
TTITLE20=The Kookaburra Yodel
TTITLE21=My Pretty Quadroon
TTITLE22=Sunny Queensland
TTITLE23=Out on the Warrego
TTITLE24=The Sheik of Scrubby Creek
EXTD=
EXTT0=
EXTT1=
EXTT2=
EXTT3=
EXTT4=
EXTT5=
EXTT6=
EXTT7=
EXTT8=
EXTT9=
EXTT10=
EXTT11=
EXTT12=
EXTT13=
EXTT14=
EXTT15=
EXTT16=
EXTT17=
EXTT18=
EXTT19=
EXTT20=
EXTT21=
EXTT22=
EXTT23=
EXTT24=
PLAYORDER=
